<mxfile host="app.diagrams.net" modified="2023-11-07T20:21:20.938Z" agent="Mozilla/5.0 (Macintosh; Intel Mac OS X 10_15_7) AppleWebKit/605.1.15 (KHTML, like Gecko) Version/17.1 Safari/605.1.15" version="22.0.8" etag="dGd3GCT3miJy55SWHS5Q" type="github">
  <diagram name="Pagina-1" id="MhorzzIy_OmywFVpQxCZ">
    <mxGraphModel>
      <root>
        <mxCell id="0" />
        <mxCell id="1" parent="0" />
      </root>
    </mxGraphModel>
  </diagram>
</mxfile>
